<?xml version="1.0" encoding="UTF-8" standalone="no"?>
<svg
   xmlns:dc="http://purl.org/dc/elements/1.1/"
   xmlns:cc="http://creativecommons.org/ns#"
   xmlns:rdf="http://www.w3.org/1999/02/22-rdf-syntax-ns#"
   xmlns:svg="http://www.w3.org/2000/svg"
   xmlns="http://www.w3.org/2000/svg"
   xmlns:sodipodi="http://sodipodi.sourceforge.net/DTD/sodipodi-0.dtd"
   xmlns:inkscape="http://www.inkscape.org/namespaces/inkscape"
   inkscape:version="1.0 (4035a4fb49, 2020-05-01)"
   sodipodi:docname="download.svg"
   id="svg76"
   height="45"
   width="400"
   version="1.1">
  <metadata
     id="metadata82">
    <rdf:RDF>
      <cc:Work
         rdf:about="">
        <dc:format>image/svg+xml</dc:format>
        <dc:type
           rdf:resource="http://purl.org/dc/dcmitype/StillImage" />
        <dc:title></dc:title>
      </cc:Work>
    </rdf:RDF>
  </metadata>
  <defs
     id="defs80" />
  <sodipodi:namedview
     inkscape:current-layer="svg76"
     inkscape:window-maximized="1"
     inkscape:window-y="-8"
     inkscape:window-x="-8"
     inkscape:cy="100"
     inkscape:cx="200"
     inkscape:zoom="2.5475"
     showgrid="false"
     id="namedview78"
     inkscape:window-height="1017"
     inkscape:window-width="1920"
     inkscape:pageshadow="2"
     inkscape:pageopacity="0"
     guidetolerance="10"
     gridtolerance="10"
     objecttolerance="10"
     borderopacity="1"
     bordercolor="#666666"
     pagecolor="#ffffff" />
  <path
     style="stroke-width:1.395"
     id="path72"
     d="m 15.833984,10.875449 q 0,-0.281487 0.237776,-0.466213 0.237775,-0.184726 0.558255,-0.290283 0.32048,-0.105558 0.702989,-0.1407441 0.382508,-0.03519 0.671974,-0.03519 0.599607,0 1.271581,0.1407441 0.671975,0.140743 1.002793,0.615753 0.599607,0.862053 0.878735,2.049577 0.279128,1.187523 0.527241,2.278285 0.372171,1.512992 0.951102,3.166728 0.578932,1.653736 1.209553,3.369047 0.630622,1.715317 1.292258,3.369047 0.661636,1.65374 1.157863,3.09636 0.599608,-2.12874 1.106173,-4.36305 0.506565,-2.234304 0.971778,-4.468607 0.465213,-2.234302 0.971778,-4.468605 0.506565,-2.234303 1.106173,-4.380641 0.124057,-0.5101951 0.186085,-1.2842841 0.06203,-0.774089 0.258452,-1.4954 0.196423,-0.72131 0.568593,-1.240302 0.37217,-0.5189907 1.137187,-0.5189907 0.806369,0 1.085497,0.3782477 0.279127,0.378248 0.279127,1.099558 -0.206761,1.988002 -0.671974,3.9408181 -0.465212,1.952816 -0.858059,3.905631 -0.558255,2.410233 -1.209553,4.829261 -0.651298,2.419034 -1.219892,4.846854 -0.568593,2.42783 -0.971778,4.86445 -0.403184,2.43662 -0.485889,4.88204 0.04135,0.10556 0.124057,0.2463 0.08271,0.14074 0.08271,0.21112 0,0.21111 -0.227438,0.39584 -0.227437,0.18472 -0.568593,0.31667 -0.341156,0.13195 -0.744341,0.20232 -0.403184,0.0704 -0.754678,0.0704 -0.330819,0 -0.754679,-0.0352 -0.423861,-0.0352 -0.847721,-0.13194 -0.423861,-0.0968 -0.744341,-0.2551 -0.32048,-0.15834 -0.403184,-0.40464 -0.330818,-0.82687 -0.609946,-1.60975 -0.279128,-0.78289 -0.527241,-1.60975 -1.17854,-3.60656 -2.470797,-7.08116 -1.292258,-3.47461 -2.388093,-7.063568 -0.516903,-1.618551 -0.775355,-3.175525 -0.258451,-1.556975 -0.837383,-3.069968 0.08271,0.140744 0.08271,0.228709 -0.08271,-0.246301 -0.165409,-0.466213 -0.08271,-0.219912 -0.186086,-0.483806 0,0.07037 0.02068,0.08796 0.02068,0.01759 0.02068,0.05278 0,-0.03519 -0.02068,-0.05278 -0.02068,-0.01759 -0.02068,-0.05278 z M 38.19873,28.4332 q 0,-1.61855 0.444537,-3.17553 0.444537,-1.55697 0.754679,-3.10515 0.0827,-0.404637 0.651298,-0.501398 0.568593,-0.09676 0.96144,-0.09676 0.682312,0 1.095834,0.175929 0.165409,0.07037 0.310142,0.158339 0.144733,0.088 0.144733,0.2287 0,1.513 -0.423861,2.95562 -0.42386,1.44262 -0.42386,3.06117 0,0.54538 0.09304,1.02919 0.09304,0.4838 0.175748,0.95881 l 0.124056,0.5102 q 0,0.14074 0.02068,0.2463 0.02068,0.10555 0.06203,0.2463 0,0.31667 -0.527241,0.43102 -0.527242,0.11436 -0.920088,0.11436 -0.599608,0 -1.106173,-0.20232 -0.506565,-0.20232 -0.796031,-0.69492 l -0.289465,-0.5102 q -0.248114,-0.40463 -0.248114,-0.90603 0,-0.5014 -0.103381,-0.92363 z m 1.323272,-10.590949 v -0.334265 q 0,-0.826868 0.485889,-1.477807 0.485889,-0.650939 1.457667,-0.650939 0.124057,0 0.237776,0.01759 0.113719,0.01759 0.237775,0.01759 0.248114,0.03519 0.651298,0.167133 0.403185,0.131947 0.403185,0.413434 v 0.03519 q -0.08271,0.140744 -0.103381,0.290284 -0.02068,0.149539 -0.103381,0.255097 l 0.04135,-0.03519 q -0.248114,0.545381 -0.403185,0.879647 -0.155071,0.334266 -0.341156,0.536584 -0.186085,0.202319 -0.465213,0.290284 -0.279127,0.08796 -0.796031,0.08796 -0.0827,0 -0.289465,-0.01759 -0.206762,-0.01759 -0.444537,-0.07037 -0.237776,-0.05278 -0.403185,-0.140744 -0.165409,-0.08796 -0.165409,-0.263894 z m 6.857651,-0.158336 q 0,-0.246301 0.620284,-0.42223 0.620284,-0.17593 1.405977,-0.290284 0.785693,-0.114354 1.519695,-0.167133 0.734003,-0.05278 1.002792,-0.08796 0,-0.47501 0.04135,-0.958815 0.04135,-0.483806 0.227437,-0.862054 0.186085,-0.378248 0.58927,-0.606957 0.403184,-0.228708 1.126848,-0.228708 0.599608,0 0.90975,0.123151 0.310142,0.12315 0.661636,0.510195 0.0827,0.211115 0.0827,0.404637 v 0.589364 q 0,0 -0.04135,0.606956 0.765017,-0.07037 1.519696,-0.167133 0.754678,-0.09676 1.519695,-0.09676 0.558255,0 0.765017,0.01759 0.206761,0.01759 0.413522,0.42223 0.165409,0.404638 -0.403184,0.615753 -0.568594,0.211115 -1.364625,0.316673 -0.796031,0.105558 -1.581723,0.158336 -0.785693,0.05278 -0.951102,0.05278 -0.248114,3.025985 -0.506565,5.999184 -0.258452,2.97321 -0.258452,6.03438 0,1.37225 0.103381,2.83246 0.10338,1.46022 0.578931,2.76209 0.124057,0.40464 0.413523,0.7565 0.289466,0.35186 0.289466,0.7565 0,0.2463 -0.227438,0.38704 -0.227437,0.14074 -0.547917,0.23751 -0.32048,0.0968 -0.64096,0.11435 -0.32048,0.0176 -0.527241,0.0176 -1.302596,0 -1.984908,-0.82686 -0.682313,-0.82687 -0.982116,-1.97921 -0.299804,-1.15234 -0.32048,-2.36625 -0.02068,-1.21391 -0.02068,-1.97041 0,-1.54818 0.07237,-3.16673 0.07237,-1.61855 0.175747,-3.20191 0.103381,-1.58337 0.289466,-3.096355 0.186085,-1.512992 0.434198,-2.814869 -0.723664,0.07037 -1.416314,0.158336 -0.692651,0.08796 -1.416315,0.08796 -0.165409,0 -0.444537,-0.01759 -0.279127,-0.01759 -0.527241,-0.08796 -0.248113,-0.07037 -0.423861,-0.193522 -0.175747,-0.123151 -0.175747,-0.351859 z M 62.190067,28.85543 q 0,-1.19632 0.382509,-2.30468 0.382508,-1.10835 1.147525,-1.9792 0.765016,-0.87085 1.912541,-1.38984 1.147525,-0.51899 2.656883,-0.51899 0.930425,0 2.057274,0.2375 1.126849,0.2375 2.119303,0.70372 0.992454,0.46621 1.65409,1.18752 0.661636,0.72131 0.661636,1.65374 0,0.43982 -0.175747,0.66853 -0.175747,0.22871 -0.713326,0.22871 l -0.227437,-0.0352 q 0.599607,1.37225 1.033806,2.81487 0.434199,1.44262 0.847721,2.88524 0.165409,0.28149 0.248114,0.5014 0.0827,0.21991 0.0827,0.43103 0,0.28148 -0.186085,0.46621 -0.186085,0.18473 -0.485889,0.27269 -0.299804,0.088 -0.620284,0.12315 -0.32048,0.0352 -0.568593,0.0352 -0.889074,0 -1.33361,-0.2639 -0.444537,-0.26389 -0.64096,-0.72131 -0.196424,-0.45741 -0.237776,-1.02918 -0.04135,-0.57177 -0.165409,-1.15234 -0.248113,0.68612 -0.651298,1.33706 -0.403184,0.65094 -0.951102,1.16993 -0.547917,0.51899 -1.292258,0.82687 -0.74434,0.30788 -1.674766,0.30788 -1.364624,0 -2.29505,-0.66854 -0.930426,-0.66853 -1.499019,-1.64493 -0.568594,-0.97641 -0.827045,-2.08477 -0.258452,-1.10835 -0.258452,-2.05837 z m 2.93601,-0.2463 q 0,0.65094 0.103381,1.37225 0.10338,0.72131 0.341156,1.42502 0.237775,0.70372 0.609946,1.32827 0.37217,0.62455 0.930425,1.09956 1.013131,-0.93243 1.49902,-2.26949 0.485889,-1.33706 0.868397,-2.57736 0.382508,-1.24031 0.868397,-2.12875 0.485889,-0.88844 1.499019,-0.88844 0.64096,0 1.075159,0.19352 -0.206761,-0.43982 -0.682312,-0.85326 -0.475551,-0.41343 -1.064821,-0.75649 -0.589269,-0.34307 -1.219891,-0.56298 -0.630622,-0.21991 -1.188877,-0.21991 -0.16541,0 -0.382509,0.044 -0.217099,0.044 -0.341156,0.009 -0.847721,0.21111 -1.395638,0.73011 -0.547918,0.51899 -0.889074,1.22271 -0.341156,0.70371 -0.485889,1.44262 -0.144733,0.7389 -0.144733,1.38984 z M 80.161136,24.4484 q -0.05169,-0.58936 0.08271,-1.08197 0.134395,-0.4926 0.537579,-0.80048 0.403185,-0.30787 1.292258,-0.30787 0.206761,0 0.506565,0.044 0.299804,0.044 0.58927,0.11435 0.289465,0.0704 0.485889,0.21112 0.196423,0.14074 0.196423,0.38704 v 1.98801 q 0.806369,-0.79169 1.757471,-1.13475 0.951101,-0.34306 2.170993,-0.34306 0.930426,0 1.840175,0.36065 0.90975,0.36066 1.716119,0.95882 0.806369,0.59816 1.395638,1.31947 0.58927,0.72131 0.85806,1.44262 0.165409,-0.65094 0.37217,-1.59216 0.206761,-0.94122 0.609946,-1.80328 0.403184,-0.86205 1.06482,-1.4778 0.661636,-0.61576 1.757471,-0.61576 1.178539,0 1.984908,0.72132 0.806359,0.72131 1.312929,1.87364 0.50657,1.15234 0.76502,2.57737 0.25845,1.42503 0.38251,2.81487 0.12405,1.38984 0.12405,2.59496 v 1.89124 q 0,0.21111 -0.18608,0.34306 -0.18609,0.13195 -0.46522,0.20232 -0.27912,0.0704 -0.57893,0.088 -0.2998,0.0176 -0.46521,0.0176 -0.640955,0 -1.168197,-0.16713 -0.527241,-0.16713 -0.527241,-0.85326 v -1.58336 q 0,0 -0.04135,-2.04958 -0.04135,-2.04957 -0.144733,-2.19911 -0.103381,-0.14954 -0.26879,-1.9968 -0.165409,-1.84726 -0.42386,-1.44262 -0.258452,0.40463 -0.630622,-0.56298 -0.516903,0 -0.744341,0.49261 -0.227437,0.4926 -0.382508,1.24909 -0.155071,0.7565 -0.237776,1.60096 -0.0827,0.84446 -0.227437,1.60096 -0.144733,0.75649 -0.465213,1.2403 -0.32048,0.48381 -0.878735,0.48381 -0.599608,0 -1.054483,-0.48381 Q 92.61851,30.087 92.173973,29.36569 91.729436,28.64438 91.284899,27.81752 90.840363,26.99065 90.302783,26.26934 89.765204,25.53043 89.14492,25.07302 88.586665,24.63319 87.883677,24.65079 h -0.103381 q -0.930426,0.0352 -1.457667,0.57177 -0.527241,0.53658 -0.806369,1.31067 -0.279128,0.77409 -0.341156,1.66253 -0.06203,0.88845 -0.06203,1.55698 0,0.63334 0.124056,1.47781 0.0827,0.56297 0.0827,1.07316 0,0.2639 -0.02068,0.5102 -0.06203,0.7389 -0.465213,1.2403 -0.403185,0.5014 -1.499019,0.5014 -0.413523,0 -1.033807,-0.0704 -0.620283,-0.0704 -0.827045,-0.47501 -0.475551,-0.72131 -0.723664,-1.82087 -0.248114,-1.09956 -0.37217,-2.26949 -0.124057,-1.16993 -0.144733,-2.32227 -0.02068,-1.15233 -0.02068,-1.9792 0,-0.58057 -0.05169,-1.16993 z m 26.076114,3.9848 q 0,-1.61855 0.44453,-3.17553 0.44454,-1.55697 0.75468,-3.10515 0.0827,-0.404637 0.6513,-0.501398 0.56859,-0.09676 0.96144,-0.09676 0.68231,0 1.09583,0.175929 0.16541,0.07037 0.31015,0.158339 0.14473,0.088 0.14473,0.2287 0,1.513 -0.42386,2.95562 -0.42386,1.44262 -0.42386,3.06117 0,0.54538 0.093,1.02919 0.093,0.4838 0.17575,0.95881 l 0.12405,0.5102 q 0,0.14074 0.0207,0.2463 0.0207,0.10555 0.062,0.2463 0,0.31667 -0.52724,0.43102 -0.52724,0.11436 -0.92009,0.11436 -0.59961,0 -1.10617,-0.20232 -0.50657,-0.20232 -0.79603,-0.69492 l -0.28947,-0.5102 q -0.24811,-0.40463 -0.24811,-0.90603 0,-0.5014 -0.10338,-0.92363 z m 1.32327,-10.590949 v -0.334265 q 0,-0.826868 0.48589,-1.477807 0.48589,-0.650939 1.45767,-0.650939 0.12405,0 0.23777,0.01759 0.11372,0.01759 0.23778,0.01759 0.24811,0.03519 0.65129,0.167133 0.40319,0.131947 0.40319,0.413434 v 0.03519 q -0.0827,0.140744 -0.10338,0.290284 -0.0207,0.149539 -0.10338,0.255097 l 0.0414,-0.03519 q -0.24811,0.545381 -0.40319,0.879647 -0.15507,0.334266 -0.34115,0.536584 -0.18609,0.202319 -0.46521,0.290284 -0.27913,0.08796 -0.79603,0.08796 -0.0827,0 -0.28947,-0.01759 -0.20676,-0.01759 -0.44454,-0.07037 -0.23777,-0.05278 -0.40318,-0.140744 -0.16541,-0.08796 -0.16541,-0.263894 z m 7.72605,11.101139 V 28.4332 q 0,-0.63335 0.0414,-1.19632 0.0413,-0.79168 0.0413,-1.30188 0,-0.28149 0.0413,-0.64214 0.0414,-0.36066 0.20677,-0.57177 0.20676,-0.17593 0.48588,-0.36066 0.27913,-0.18472 0.60995,-0.18472 1.05448,0 1.65409,0.20232 0.59961,0.20232 0.64096,0.83566 l 0.0827,0.54538 q 0.37217,-0.75649 0.99246,-1.87365 0.62028,-1.11715 1.43699,-2.12874 0.81671,-1.011594 1.84017,-1.724108 1.02347,-0.712514 2.16066,-0.712514 1.05448,0 1.73679,0.844461 0.68232,0.844461 1.0855,2.155131 0.40319,1.31068 0.56859,2.92043 0.16541,1.60975 0.22744,3.15793 0.062,1.54818 0.0827,2.82367 0.0207,1.27549 0.14473,1.92643 0.0827,0.54538 0.27913,1.15233 0.19642,0.60696 0.19642,1.11715 0,0.14075 -0.23777,0.27269 -0.23778,0.13195 -0.50657,0.21992 -0.26879,0.088 -0.54792,0.14074 -0.27913,0.0528 -0.40318,0.0528 -0.80637,0 -1.14753,-1.02919 -0.34115,-1.02919 -0.42386,-2.57736 -0.0827,-1.54818 -0.0827,-3.35146 0,-1.80327 -0.14473,-3.35145 -0.14474,-1.54818 -0.58927,-2.57737 -0.44454,-1.02918 -1.41632,-1.06437 -0.88907,0 -1.84017,0.97641 -0.95111,0.97641 -1.63342,2.59496 -0.66163,1.61855 -0.90975,3.67692 -0.0827,0.65094 -0.0827,1.30188 0,1.42502 0.35149,2.85005 0.0413,0.2463 -0.23777,0.36945 -0.27913,0.12315 -0.69265,0.19353 -0.41353,0.0704 -0.83739,0.088 -0.42386,0.0176 -0.6513,0.0176 -0.80636,0 -1.29225,-0.4838 -0.48589,-0.48381 -0.75468,-1.2403 -0.26879,-0.7565 -0.36183,-1.69772 -0.0931,-0.94122 -0.11372,-1.85606 z m 18.78777,-0.088 q 0,-1.19632 0.38251,-2.30468 0.38251,-1.10835 1.14753,-1.9792 0.76501,-0.87085 1.91254,-1.38984 1.14752,-0.51899 2.65688,-0.51899 0.93043,0 2.05728,0.2375 1.12684,0.2375 2.1193,0.70372 0.99245,0.46621 1.65409,1.18752 0.66163,0.72131 0.66163,1.65374 0,0.43982 -0.17574,0.66853 -0.17575,0.22871 -0.71333,0.22871 l -0.22744,-0.0352 q 0.59961,1.37225 1.03381,2.81487 0.4342,1.44262 0.84772,2.88524 0.16541,0.28149 0.24811,0.5014 0.0827,0.21991 0.0827,0.43103 0,0.28148 -0.18609,0.46621 -0.18608,0.18473 -0.48588,0.27269 -0.29981,0.088 -0.62029,0.12315 -0.32048,0.0352 -0.56859,0.0352 -0.88908,0 -1.33361,-0.2639 -0.44454,-0.26389 -0.64096,-0.72131 -0.19643,-0.45741 -0.23778,-1.02918 -0.0413,-0.57177 -0.16541,-1.15234 -0.24811,0.68612 -0.65129,1.33706 -0.40319,0.65094 -0.95111,1.16993 -0.54791,0.51899 -1.29225,0.82687 -0.74434,0.30788 -1.67477,0.30788 -1.36463,0 -2.29505,-0.66854 -0.93043,-0.66853 -1.49902,-1.64493 -0.56859,-0.97641 -0.82705,-2.08477 -0.25845,-1.10835 -0.25845,-2.05837 z m 2.93601,-0.2463 q 0,0.65094 0.10338,1.37225 0.10338,0.72131 0.34116,1.42502 0.23778,0.70372 0.60995,1.32827 0.37217,0.62455 0.93042,1.09956 1.01313,-0.93243 1.49902,-2.26949 0.48589,-1.33706 0.8684,-2.57736 0.38251,-1.24031 0.8684,-2.12875 0.48588,-0.88844 1.49901,-0.88844 0.64096,0 1.07516,0.19352 -0.20676,-0.43982 -0.68231,-0.85326 -0.47555,-0.41343 -1.06482,-0.75649 -0.58927,-0.34307 -1.21989,-0.56298 -0.63062,-0.21991 -1.18888,-0.21991 -0.16541,0 -0.38251,0.044 -0.2171,0.044 -0.34115,0.009 -0.84772,0.21111 -1.39564,0.73011 -0.54792,0.51899 -0.88907,1.22271 -0.34116,0.70371 -0.48589,1.44262 -0.14474,0.7389 -0.14474,1.38984 z m 14.98337,-4.29268 q 0,-0.72131 0.49623,-1.2403 0.49623,-0.51899 1.20955,-0.84446 0.71333,-0.32547 1.56105,-0.483807 0.84772,-0.158336 1.57139,-0.158336 0.55825,0 1.48868,0.140743 0.93042,0.140744 1.8195,0.42223 0.88907,0.28149 1.54037,0.7389 0.6513,0.45742 0.6513,1.07317 0,0.28149 -0.24812,0.5014 -0.24811,0.21991 -0.5169,0.21991 -0.55826,0 -1.01313,-0.30787 -0.45488,-0.30788 -0.94077,-0.65094 -0.48588,-0.34306 -1.06482,-0.65094 -0.57893,-0.30788 -1.30259,-0.30788 -0.72367,0 -1.31294,0.39584 -0.58927,0.39585 -0.58927,1.04678 0,1.07317 0.88908,2.10236 0.88907,1.02919 1.95389,2.16393 1.06482,1.13475 1.9539,2.38384 0.88907,1.2491 0.88907,2.76209 0,0.65094 -0.32048,1.09956 -0.32048,0.44862 -0.84772,0.73011 -0.52724,0.28149 -1.18888,0.43103 -0.66163,0.14954 -1.28192,0.14954 -0.68231,0 -1.59206,-0.27269 -0.90975,-0.27269 -1.71612,-0.72131 -0.80637,-0.44862 -1.35429,-1.04678 -0.54791,-0.59816 -0.54791,-1.2491 0,-0.31668 0.52724,-0.40464 0.52724,-0.088 0.77535,-0.088 0.12406,0 0.38251,0.0704 0.25845,0.0704 0.50657,0.15833 0.24811,0.088 0.44453,0.19353 0.19643,0.10555 0.15507,0.2287 0.20677,0.21112 0.63063,0.62455 0.42386,0.41344 0.84772,0.66853 0.42386,0.2551 0.74434,0.18473 0.32048,-0.0704 0.32048,-0.79168 0,-1.37225 -0.8684,-2.52459 -0.8684,-1.15233 -1.89186,-2.25189 -1.02347,-1.09956 -1.89187,-2.18153 -0.8684,-1.08196 -0.8684,-2.31347 z"
     fill="#ffffff" />
  <path
     style="stroke-width:1.395"
     id="path74"
     d="m 174.00107,35.01296 q 0,-0.10556 0.0827,-0.7477 0.0827,-0.64215 0.2171,-1.56577 0.1344,-0.92363 0.2998,-1.98801 0.16541,-1.06437 0.28947,-2.01439 0.12406,-0.95002 0.2171,-1.67133 0.093,-0.72131 0.093,-0.96761 -0.16541,-0.0704 -0.40318,-0.20232 -0.23778,-0.13194 -0.23778,-0.30787 0,-0.2463 0.27913,-0.39584 0.27913,-0.14954 0.48589,-0.21992 0.0827,-0.89724 0.20676,-2.49819 0.12406,-1.60096 0.38251,-3.457014 0.25845,-1.856055 0.72366,-3.764888 0.46522,-1.908834 1.23023,-3.465809 0.76502,-1.556974 1.84018,-2.5421791 1.07516,-0.985204 2.64654,-0.985204 1.57139,0 2.60519,0.844461 1.03381,0.844461 1.68511,2.1991171 0.6513,1.354656 0.99245,3.008392 0.34116,1.653735 0.51691,3.289878 0.17574,1.636143 0.21709,3.061171 0.0414,1.425025 0.0827,2.287085 0.0414,0.54538 0.31014,0.7301 0.26879,0.18473 0.58927,0.2551 0.32048,0.0704 0.57893,0.15834 0.25845,0.088 0.25845,0.43982 0,0.40464 -0.57893,0.56297 -0.57893,0.15834 -0.90975,0.19353 0.20676,2.19911 0.5686,4.32786 0.36183,2.12874 0.96144,4.29268 0.0827,0.40463 0.22743,0.81807 0.14474,0.41343 0.14474,0.80048 0,0.28148 -0.22744,0.46621 -0.22744,0.18472 -0.58927,0.29028 -0.36183,0.10556 -0.72367,0.14075 -0.36183,0.0352 -0.60994,0.0352 -0.93043,0 -1.57139,-0.29908 -0.64096,-0.29908 -0.84772,-1.14354 -0.55825,-2.26949 -1.09583,-4.76769 -0.45488,-2.16393 -0.45488,-4.20471 0,-0.31667 0.0207,-0.63334 -1.7368,0 -3.49427,0.0704 -1.75747,0.0704 -3.37021,0.52779 -0.0413,0.47501 -0.20676,1.79448 -0.16541,1.31947 -0.37217,2.83246 -0.20676,1.51299 -0.42386,2.89404 -0.2171,1.38104 -0.25845,1.96161 -0.0413,0.2463 -0.42386,0.46621 -0.38251,0.21991 -0.82704,0.23751 -0.44454,0.0176 -0.7857,-0.23751 -0.34115,-0.2551 -0.34115,-0.90603 z m 3.86643,-10.66132 q 1.61274,-0.31668 3.23582,-0.36945 1.62307,-0.0528 3.27716,-0.12315 -0.0827,-0.43983 -0.0413,-0.90604 0.0413,-0.46621 0.0413,-0.94122 0,-1.037986 -0.062,-2.410235 -0.062,-1.372249 -0.18608,-2.779684 -0.12406,-1.407435 -0.32048,-2.770887 -0.19642,-1.363453 -0.44454,-2.427825 -0.24811,-1.064373 -0.52724,-1.6977181 -0.27913,-0.633346 -0.60995,-0.633346 -0.64095,0.03519 -1.20955,0.9412221 -0.56859,0.906036 -1.0338,2.304674 -0.46522,1.398639 -0.84773,3.131543 -0.3825,1.732904 -0.64096,3.38664 -0.25845,1.653736 -0.42386,3.078766 -0.16541,1.42503 -0.20676,2.21671 z m 16.96828,10.74928 q 0,-0.51019 0.0517,-1.07317 0.0517,-0.56297 0.093,-1.05557 l 0.12406,-2.63894 q 0.20676,-3.16673 0.50656,-6.2279 0.29981,-3.061174 0.50657,-6.192717 0.12406,-1.724108 0.18608,-3.38664 0.062,-1.662532 0.18609,-3.38664 -0.0827,-0.140743 -0.0827,-0.193522 0,-0.246301 0.2171,-0.387045 0.2171,-0.140743 0.50657,-0.237504 0.28946,-0.09676 0.60994,-0.131947 0.32048,-0.03519 0.48589,-0.03519 h 0.47555 q 0.64096,0.07037 0.93043,0.343062 0.28947,0.27269 0.37217,0.650939 0.0827,0.378248 0.0413,0.809275 -0.0413,0.431026 -0.0413,0.800478 0,2.550976 -0.14473,5.198712 -0.14473,2.647737 -0.33082,5.313069 -0.18609,2.66533 -0.34116,5.33066 -0.15507,2.66533 -0.15507,5.26909 v 1.2315 q 0,0.82687 -0.54791,1.09076 -0.54792,0.2639 -1.5197,0.2639 -0.84772,0 -1.48868,-0.31668 -0.64096,-0.31667 -0.64096,-1.03798 z m 9.48352,-6.66772 q 0,-1.61855 0.44453,-3.17553 0.44454,-1.55697 0.75468,-3.10515 0.0827,-0.404637 0.6513,-0.501398 0.56859,-0.09676 0.96144,-0.09676 0.68231,0 1.09584,0.175929 0.16541,0.07037 0.31014,0.158339 0.14473,0.088 0.14473,0.2287 0,1.513 -0.42386,2.95562 -0.42386,1.44262 -0.42386,3.06117 0,0.54538 0.093,1.02919 0.093,0.4838 0.17575,0.95881 l 0.12406,0.5102 q 0,0.14074 0.0207,0.2463 0.0207,0.10555 0.062,0.2463 0,0.31667 -0.52724,0.43102 -0.52724,0.11436 -0.92009,0.11436 -0.59961,0 -1.10617,-0.20232 -0.50657,-0.20232 -0.79603,-0.69492 l -0.28947,-0.5102 q -0.24811,-0.40463 -0.24811,-0.90603 0,-0.5014 -0.10338,-0.92363 z m 1.32327,-10.590949 v -0.334265 q 0,-0.826868 0.48589,-1.477807 0.48589,-0.650939 1.45767,-0.650939 0.12405,0 0.23777,0.01759 0.11372,0.01759 0.23778,0.01759 0.24811,0.03519 0.6513,0.167133 0.40318,0.131947 0.40318,0.413434 v 0.03519 q -0.0827,0.140744 -0.10338,0.290284 -0.0207,0.149539 -0.10338,0.255097 l 0.0413,-0.03519 q -0.24811,0.545381 -0.40318,0.879647 -0.15507,0.334266 -0.34116,0.536584 -0.18609,0.202319 -0.46521,0.290284 -0.27913,0.08796 -0.79603,0.08796 -0.0827,0 -0.28947,-0.01759 -0.20676,-0.01759 -0.44454,-0.07037 -0.23777,-0.05278 -0.40318,-0.140744 -0.16541,-0.08796 -0.16541,-0.263894 z m 7.75706,6.606149 q -0.0517,-0.58936 0.0827,-1.08197 0.13439,-0.4926 0.53758,-0.80048 0.40318,-0.30787 1.29225,-0.30787 0.20677,0 0.50657,0.044 0.2998,0.044 0.58927,0.11435 0.28946,0.0704 0.48589,0.21112 0.19642,0.14074 0.19642,0.38704 v 1.98801 q 0.80637,-0.79169 1.75747,-1.13475 0.9511,-0.34306 2.171,-0.34306 0.93042,0 1.84017,0.36065 0.90975,0.36066 1.71612,0.95882 0.80637,0.59816 1.39564,1.31947 0.58927,0.72131 0.85806,1.44262 0.16541,-0.65094 0.37217,-1.59216 0.20676,-0.94122 0.60994,-1.80328 0.40319,-0.86205 1.06482,-1.4778 0.66164,-0.61576 1.75747,-0.61576 1.17854,0 1.98491,0.72132 0.80637,0.72131 1.31294,1.87364 0.50656,1.15234 0.76501,2.57737 0.25845,1.42503 0.38251,2.81487 0.12406,1.38984 0.12406,2.59496 v 1.89124 q 0,0.21111 -0.18609,0.34306 -0.18608,0.13195 -0.46521,0.20232 -0.27913,0.0704 -0.57893,0.088 -0.29981,0.0176 -0.46521,0.0176 -0.64096,0 -1.16821,-0.16713 -0.52724,-0.16713 -0.52724,-0.85326 v -1.58336 q 0,0 -0.0413,-2.04958 -0.0414,-2.04957 -0.14473,-2.19911 -0.10338,-0.14954 -0.26879,-1.9968 -0.16541,-1.84726 -0.42386,-1.44262 -0.25845,0.40463 -0.63062,-0.56298 -0.51691,0 -0.74434,0.49261 -0.22744,0.4926 -0.38251,1.24909 -0.15507,0.7565 -0.23778,1.60096 -0.0827,0.84446 -0.22744,1.60096 -0.14473,0.75649 -0.46521,1.2403 -0.32048,0.48381 -0.87873,0.48381 -0.59961,0 -1.05449,-0.48381 -0.45487,-0.48381 -0.89941,-1.20512 -0.44453,-0.72131 -0.88907,-1.54817 -0.44454,-0.82687 -0.98212,-1.54818 -0.53758,-0.73891 -1.15786,-1.19632 -0.55826,-0.43983 -1.26124,-0.42223 h -0.10338 q -0.93043,0.0352 -1.45767,0.57177 -0.52724,0.53658 -0.80637,1.31067 -0.27913,0.77409 -0.34116,1.66253 -0.062,0.88845 -0.062,1.55698 0,0.63334 0.12405,1.47781 0.0827,0.56297 0.0827,1.07316 0,0.2639 -0.0207,0.5102 -0.062,0.7389 -0.46521,1.2403 -0.40319,0.5014 -1.49902,0.5014 -0.41352,0 -1.03381,-0.0704 -0.62028,-0.0704 -0.82704,-0.47501 -0.47555,-0.72131 -0.72367,-1.82087 -0.24811,-1.09956 -0.37217,-2.26949 -0.12405,-1.16993 -0.14473,-2.32227 -0.0207,-1.15233 -0.0207,-1.9792 0,-0.58057 -0.0517,-1.16993 z m 26.07611,5.12834 q 0,-1.23151 0.32048,-2.90284 0.32048,-1.67132 1.0855,-3.16672 0.76502,-1.4954 2.01592,-2.542183 1.25091,-1.046779 3.15311,-1.046779 1.77815,0 2.66722,0.87085 0.88908,0.87085 0.88908,2.348652 0,0.96762 -0.42387,2.11995 -0.42386,1.15234 -1.20955,2.18153 -0.78569,1.02918 -1.86085,1.71531 -1.07516,0.68612 -2.39843,0.68612 l -0.53758,-0.0352 q 0,0.47501 0.16541,1.27549 0.16541,0.80047 0.48589,1.59216 0.32048,0.79168 0.82704,1.38984 0.50657,0.59816 1.23023,0.59816 1.05449,0 2.02626,-0.72131 0.97178,-0.72131 1.84018,-1.60096 0.8684,-0.87965 1.61274,-1.60096 0.74434,-0.72131 1.36462,-0.72131 0.33082,0 0.68231,0.088 0.3515,0.088 0.39285,0.4926 0,0.2463 -0.15507,0.40464 -0.15507,0.15833 -0.27913,0.35186 -0.64096,0.93242 -1.39564,1.77688 -0.75468,0.84446 -1.70578,1.53059 -0.9511,0.68612 -2.07795,1.08196 -1.12685,0.39584 -2.49147,0.39584 -1.77815,0 -2.95669,-0.53658 -1.17854,-0.53658 -1.9022,-1.44262 -0.72367,-0.90604 -1.04415,-2.09356 -0.32048,-1.18752 -0.32048,-2.4894 z m 3.70103,-1.33706 0.57893,0.43982 q 0.41352,0.31667 0.82705,0.14074 0.41352,-0.17593 0.74434,-0.64214 0.33082,-0.46621 0.60994,-1.15234 0.27913,-0.68612 0.49623,-1.40743 0.2171,-0.72131 0.32048,-1.40744 0.10338,-0.68612 0.10338,-1.14354 v -0.59816 q 0,0 -0.062,-0.633342 -0.062,-0.633346 -0.2171,-0.501399 -0.15507,0.131947 -0.48589,-0.255097 -0.10338,-0.01759 -0.18608,-0.01759 -0.70299,0 -1.19922,0.756496 -0.53758,0.844462 -0.86839,2.049572 -0.33082,1.20512 -0.47555,2.47181 -0.14474,1.26669 -0.18609,1.90004 z m 13.59807,0.70371 V 28.4332 q 0,-0.63335 0.0414,-1.19632 0.0413,-0.79168 0.0413,-1.30188 0,-0.28149 0.0414,-0.64214 0.0413,-0.36066 0.20676,-0.57177 0.20676,-0.17593 0.48589,-0.36066 0.27912,-0.18472 0.60994,-0.18472 1.05448,0 1.65409,0.20232 0.59961,0.20232 0.64096,0.83566 l 0.0827,0.54538 q 0.37217,-0.75649 0.99245,-1.87365 0.62028,-1.11715 1.43699,-2.12874 0.81671,-1.011594 1.84018,-1.724108 1.02346,-0.712514 2.16065,-0.712514 1.05448,0 1.7368,0.844461 0.68231,0.844461 1.08549,2.155131 0.40319,1.31068 0.5686,2.92043 0.1654,1.60975 0.22743,3.15793 0.062,1.54818 0.0827,2.82367 0.0207,1.27549 0.14473,1.92643 0.0827,0.54538 0.27913,1.15233 0.19642,0.60696 0.19642,1.11715 0,0.14075 -0.23777,0.27269 -0.23778,0.13195 -0.50657,0.21992 -0.26879,0.088 -0.54792,0.14074 -0.27912,0.0528 -0.40318,0.0528 -0.80637,0 -1.14753,-1.02919 -0.34115,-1.02919 -0.42386,-2.57736 -0.0827,-1.54818 -0.0827,-3.35146 0,-1.80327 -0.14473,-3.35145 -0.14474,-1.54818 -0.58927,-2.57737 -0.44454,-1.02918 -1.41632,-1.06437 -0.88907,0 -1.84017,0.97641 -0.95111,0.97641 -1.63342,2.59496 -0.66163,1.61855 -0.90975,3.67692 -0.0827,0.65094 -0.0827,1.30188 0,1.42502 0.35149,2.85005 0.0414,0.2463 -0.23777,0.36945 -0.27913,0.12315 -0.69265,0.19353 -0.41353,0.0704 -0.83739,0.088 -0.42386,0.0176 -0.65129,0.0176 -0.80637,0 -1.29226,-0.4838 -0.48589,-0.48381 -0.75468,-1.2403 -0.26879,-0.7565 -0.36183,-1.69772 -0.0931,-0.94122 -0.11372,-1.85606 z m 17.94005,-11.259475 q 0,-0.246301 0.62029,-0.42223 0.62028,-0.17593 1.40597,-0.290284 0.7857,-0.114354 1.5197,-0.167133 0.734,-0.05278 1.00279,-0.08796 0,-0.47501 0.0413,-0.958815 0.0414,-0.483806 0.22744,-0.862054 0.18609,-0.378248 0.58927,-0.606957 0.40318,-0.228708 1.12685,-0.228708 0.59961,0 0.90975,0.123151 0.31014,0.12315 0.66163,0.510195 0.0827,0.211115 0.0827,0.404637 v 0.589364 q 0,0 -0.0414,0.606956 0.76501,-0.07037 1.51969,-0.167133 0.75468,-0.09676 1.5197,-0.09676 0.55825,0 0.76501,0.01759 0.20677,0.01759 0.41353,0.42223 0.16541,0.404638 -0.40319,0.615753 -0.56859,0.211115 -1.36462,0.316673 -0.79603,0.105558 -1.58173,0.158336 -0.78569,0.05278 -0.9511,0.05278 -0.24811,3.025985 -0.50656,5.999184 -0.25845,2.97321 -0.25845,6.03438 0,1.37225 0.10338,2.83246 0.10338,1.46022 0.57893,2.76209 0.12405,0.40464 0.41352,0.7565 0.28947,0.35186 0.28947,0.7565 0,0.2463 -0.22744,0.38704 -0.22744,0.14074 -0.54792,0.23751 -0.32048,0.0968 -0.64096,0.11435 -0.32048,0.0176 -0.52724,0.0176 -1.3026,0 -1.98491,-0.82686 -0.68231,-0.82687 -0.98211,-1.97921 -0.29981,-1.15234 -0.32048,-2.36625 -0.0207,-1.21391 -0.0207,-1.97041 0,-1.54818 0.0724,-3.16673 0.0724,-1.61855 0.17574,-3.20191 0.10338,-1.58337 0.28947,-3.096355 0.18608,-1.512992 0.4342,-2.814869 -0.72367,0.07037 -1.41632,0.158336 -0.69265,0.08796 -1.41631,0.08796 -0.16541,0 -0.44454,-0.01759 -0.27913,-0.01759 -0.52724,-0.08796 -0.24811,-0.07037 -0.42386,-0.193522 -0.17575,-0.123151 -0.17575,-0.351859 z m 15.39689,11.505775 q 0,-1.00279 0.29981,-2.06717 0.2998,-1.06437 0.9511,-1.91763 0.6513,-0.85325 1.64375,-1.38984 0.99246,-0.53658 2.39843,-0.53658 1.05449,0 2.22269,0.30787 1.1682,0.30788 2.13998,0.87965 0.97177,0.57177 1.58172,1.39864 0.60995,0.82687 0.60995,1.84726 0,1.2315 -0.52725,2.33986 -0.52724,1.10835 -1.47834,1.9792 -0.9511,0.87085 -2.22268,1.37225 -1.27158,0.5014 -2.76027,0.5014 -1.21989,0 -2.12964,-0.37825 -0.90975,-0.37824 -1.51969,-1.01159 -0.60995,-0.63335 -0.90975,-1.4954 -0.29981,-0.86205 -0.29981,-1.82967 z m 3.0394,-0.0352 q 0,0.31667 0.11371,0.93242 0.11372,0.61576 0.34116,1.20512 0.22744,0.58936 0.58927,1.02039 0.36183,0.43103 0.87873,0.39584 1.09584,-0.10556 1.80917,-0.60695 0.71332,-0.5014 1.15786,-1.22271 0.44454,-0.72131 0.62028,-1.56577 0.17575,-0.84447 0.17575,-1.60096 0,-0.96761 -0.44454,-1.61855 -0.44453,-0.65094 -1.45766,-1.05558 0,0.0352 0.0414,0.0352 0.0413,0 0.0413,-0.0352 l -0.5169,-0.10556 q -0.20676,-0.0704 -0.50657,-0.15833 -0.2998,-0.088 -0.58927,-0.38705 -0.80637,0.2463 -1.2509,0.63335 -0.44454,0.38704 -0.67198,0.94122 -0.22743,0.55418 -0.27912,1.32827 -0.0517,0.77409 -0.0517,1.86485 z m 12.62629,-4.83806 q 0,-0.72131 0.49622,-1.2403 0.49623,-0.51899 1.20956,-0.84446 0.71332,-0.32547 1.56104,-0.483807 0.84772,-0.158336 1.57139,-0.158336 0.55825,0 1.48868,0.140743 0.93043,0.140744 1.8195,0.42223 0.88907,0.28149 1.54037,0.7389 0.6513,0.45742 0.6513,1.07317 0,0.28149 -0.24811,0.5014 -0.24812,0.21991 -0.51691,0.21991 -0.55825,0 -1.01313,-0.30787 -0.45487,-0.30788 -0.94076,-0.65094 -0.48589,-0.34306 -1.06482,-0.65094 -0.57893,-0.30788 -1.3026,-0.30788 -0.72366,0 -1.31293,0.39584 -0.58927,0.39585 -0.58927,1.04678 0,1.07317 0.88907,2.10236 0.88907,1.02919 1.9539,2.16393 1.06482,1.13475 1.95389,2.38384 0.88907,1.2491 0.88907,2.76209 0,0.65094 -0.32048,1.09956 -0.32048,0.44862 -0.84772,0.73011 -0.52724,0.28149 -1.18888,0.43103 -0.66163,0.14954 -1.28192,0.14954 -0.68231,0 -1.59206,-0.27269 -0.90975,-0.27269 -1.71612,-0.72131 -0.80636,-0.44862 -1.35428,-1.04678 -0.54792,-0.59816 -0.54792,-1.2491 0,-0.31668 0.52724,-0.40464 0.52724,-0.088 0.77536,-0.088 0.12405,0 0.3825,0.0704 0.25846,0.0704 0.50657,0.15833 0.24811,0.088 0.44454,0.19353 0.19642,0.10555 0.15507,0.2287 0.20676,0.21112 0.63062,0.62455 0.42386,0.41344 0.84772,0.66853 0.42386,0.2551 0.74434,0.18473 0.32048,-0.0704 0.32048,-0.79168 0,-1.37225 -0.8684,-2.52459 -0.86839,-1.15233 -1.89186,-2.25189 -1.02347,-1.09956 -1.89187,-2.18153 -0.86839,-1.08196 -0.86839,-2.31347 z m 15.00404,10.09835 q 0,-0.43983 0.062,-0.88845 0.062,-0.44862 0.062,-0.88844 V 32.3564 q 0,-0.54538 0.52724,-0.68612 0.52724,-0.14074 1.08549,-0.14074 0.64096,0 1.23023,0.2287 0.58927,0.22871 0.58927,0.87965 0.12406,0.31667 0.12406,0.7565 v 0.82686 q 0,0.61576 -0.50656,0.85326 -0.50657,0.23751 -1.35429,0.23751 -0.59961,0 -1.20955,-0.18473 -0.60995,-0.18473 -0.60995,-0.71251 z m 8.38768,-5.91123 q 0,-1.26669 0.38251,-2.54218 0.38251,-1.27549 1.18888,-2.28708 0.80637,-1.01159 2.05727,-1.64494 1.25091,-0.633346 2.94635,-0.633346 0.72367,0 1.59206,0.14954 0.8684,0.14954 1.6024,0.475006 0.73401,0.32547 1.24057,0.84446 0.50657,0.519 0.50657,1.27549 0,0.47501 -0.28947,0.63335 -0.28946,0.15833 -0.76502,0.15833 l -0.14473,-0.17592 q 0,0 -0.40318,-0.44862 -0.40319,-0.44862 -0.54792,-0.58057 -0.14473,-0.13195 -0.55826,-0.51899 -0.84772,-0.72131 -1.59206,-0.77409 h -0.16541 q -0.62028,0 -1.15786,0.31667 -0.59961,0.38704 -1.06482,1.09076 -0.46521,0.70372 -0.77535,1.4954 -0.31015,0.79168 -0.48589,1.60096 -0.17575,0.80927 -0.17575,1.33706 0,0.72131 0.19642,1.64494 0.19643,0.92363 0.66164,1.7505 0.46521,0.82687 1.17854,1.38984 0.71332,0.56297 1.82984,0.56297 1.01313,0 1.84017,-0.42223 0.82705,-0.42223 1.58172,-0.94122 0.75468,-0.51899 1.47835,-0.93242 0.72366,-0.41344 1.48868,-0.41344 0.33082,0 0.67197,0.0704 0.34116,0.0704 0.34116,0.36946 v 0.10555 q -0.37217,0.82687 -1.26125,1.46022 -0.88907,0.63334 -1.99524,1.09956 -1.10617,0.46621 -2.29505,0.69492 -1.18888,0.2287 -2.1193,0.2287 -1.7368,0 -3.04973,-0.4838 -1.31294,-0.48381 -2.18133,-1.32827 -0.8684,-0.84446 -1.31294,-2.03198 -0.44454,-1.18752 -0.44454,-2.59496 z m 17.62992,0.68612 q 0,-1.00279 0.2998,-2.06717 0.29981,-1.06437 0.9511,-1.91763 0.6513,-0.85325 1.64376,-1.38984 0.99245,-0.53658 2.39843,-0.53658 1.05448,0 2.22268,0.30787 1.1682,0.30788 2.13998,0.87965 0.97178,0.57177 1.58172,1.39864 0.60995,0.82687 0.60995,1.84726 0,1.2315 -0.52724,2.33986 -0.52724,1.10835 -1.47835,1.9792 -0.9511,0.87085 -2.22268,1.37225 -1.27158,0.5014 -2.76026,0.5014 -1.21989,0 -2.12964,-0.37825 -0.90975,-0.37824 -1.5197,-1.01159 -0.60994,-0.63335 -0.90975,-1.4954 -0.2998,-0.86205 -0.2998,-1.82967 z m 3.03939,-0.0352 q 0,0.31667 0.11372,0.93242 0.11372,0.61576 0.34115,1.20512 0.22744,0.58936 0.58927,1.02039 0.36183,0.43103 0.87874,0.39584 1.09583,-0.10556 1.80916,-0.60695 0.71333,-0.5014 1.15786,-1.22271 0.44454,-0.72131 0.62029,-1.56577 0.17574,-0.84447 0.17574,-1.60096 0,-0.96761 -0.44453,-1.61855 -0.44454,-0.65094 -1.45767,-1.05558 0,0.0352 0.0414,0.0352 0.0413,0 0.0413,-0.0352 l -0.5169,-0.10556 q -0.20676,-0.0704 -0.50656,-0.15833 -0.29981,-0.088 -0.58927,-0.38705 -0.80637,0.2463 -1.25091,0.63335 -0.44454,0.38704 -0.67197,0.94122 -0.22744,0.55418 -0.27913,1.32827 -0.0517,0.77409 -0.0517,1.86485 z m 12.67798,-4.70611 q -0.0517,-0.58936 0.0827,-1.08197 0.1344,-0.4926 0.53758,-0.80048 0.40319,-0.30787 1.29226,-0.30787 0.20676,0 0.50657,0.044 0.2998,0.044 0.58927,0.11435 0.28946,0.0704 0.48588,0.21112 0.19643,0.14074 0.19643,0.38704 v 1.98801 q 0.80637,-0.79169 1.75747,-1.13475 0.9511,-0.34306 2.17099,-0.34306 0.93043,0 1.84018,0.36065 0.90975,0.36066 1.71612,0.95882 0.80636,0.59816 1.39563,1.31947 0.58927,0.72131 0.85806,1.44262 0.16541,-0.65094 0.37217,-1.59216 0.20676,-0.94122 0.60995,-1.80328 0.40318,-0.86205 1.06482,-1.4778 0.66164,-0.61576 1.75747,-0.61576 1.17854,0 1.98491,0.72132 0.80637,0.72131 1.31293,1.87364 0.50657,1.15234 0.76502,2.57737 0.25845,1.42503 0.38251,2.81487 0.12405,1.38984 0.12405,2.59496 v 1.89124 q 0,0.21111 -0.18608,0.34306 -0.18609,0.13195 -0.46521,0.20232 -0.27913,0.0704 -0.57894,0.088 -0.2998,0.0176 -0.46521,0.0176 -0.64096,0 -1.1682,-0.16713 -0.52724,-0.16713 -0.52724,-0.85326 v -1.58336 q 0,0 -0.0413,-2.04958 -0.0414,-2.04957 -0.14474,-2.19911 -0.10338,-0.14954 -0.26879,-1.9968 -0.1654,-1.84726 -0.42386,-1.44262 -0.25845,0.40463 -0.63062,-0.56298 -0.5169,0 -0.74434,0.49261 -0.22744,0.4926 -0.38251,1.24909 -0.15507,0.7565 -0.23777,1.60096 -0.0827,0.84446 -0.22744,1.60096 -0.14473,0.75649 -0.46521,1.2403 -0.32048,0.48381 -0.87874,0.48381 -0.59961,0 -1.05448,-0.48381 -0.45487,-0.48381 -0.89941,-1.20512 -0.44454,-0.72131 -0.88908,-1.54817 -0.44453,-0.82687 -0.98211,-1.54818 -0.53758,-0.73891 -1.15786,-1.19632 -0.55826,-0.43983 -1.26125,-0.42223 h -0.10338 q -0.93042,0.0352 -1.45767,0.57177 -0.52724,0.53658 -0.80636,1.31067 -0.27913,0.77409 -0.34116,1.66253 -0.062,0.88845 -0.062,1.55698 0,0.63334 0.12406,1.47781 0.0827,0.56297 0.0827,1.07316 0,0.2639 -0.0207,0.5102 -0.062,0.7389 -0.46522,1.2403 -0.40318,0.5014 -1.49902,0.5014 -0.41352,0 -1.0338,-0.0704 -0.62029,-0.0704 -0.82705,-0.47501 -0.47555,-0.72131 -0.72366,-1.82087 -0.24812,-1.09956 -0.37217,-2.26949 -0.12406,-1.16993 -0.14473,-2.32227 -0.0207,-1.15233 -0.0207,-1.9792 0,-0.58057 -0.0517,-1.16993 z"
     fill="#65aeeb" />
</svg>
